<svg id="local_mall-white-18dp" xmlns="http://www.w3.org/2000/svg" width="35.145" height="31.933" viewBox="0 0 35.145 31.933">
  <path id="패스_6" data-name="패스 6" d="M0,0H35.145V31.933H0Z" fill="none"/>
  <path id="패스_7" data-name="패스 7" d="M30.353,8.082H26.933C26.933,4.173,23.1,1,18.386,1S9.838,4.173,9.838,8.082H6.419a3.16,3.16,0,0,0-3.4,2.833L3,27.913a3.177,3.177,0,0,0,3.419,2.833H30.353a3.177,3.177,0,0,0,3.419-2.833v-17A3.177,3.177,0,0,0,30.353,8.082ZM18.386,3.833c2.838,0,5.129,1.9,5.129,4.249H13.257C13.257,5.731,15.548,3.833,18.386,3.833Zm0,14.165c-4.718,0-8.548-3.173-8.548-7.082h3.419c0,2.351,2.291,4.249,5.129,4.249s5.129-1.9,5.129-4.249h3.419C26.933,14.825,23.1,18,18.386,18Z" transform="translate(-0.813 -0.271)" fill="#8523af"/>
</svg>